<mxfile host="Electron" modified="2023-12-12T16:42:32.199Z" agent="Mozilla/5.0 (Windows NT 10.0; Win64; x64) AppleWebKit/537.36 (KHTML, like Gecko) draw.io/22.1.2 Chrome/114.0.5735.289 Electron/25.9.4 Safari/537.36" etag="U119JnwYyixUDXVZE8fw" version="22.1.2" type="device">
  <diagram name="Page-1" id="Axyi0ZO_WcJgHzGyMsrf">
    <mxGraphModel dx="8021" dy="1698" grid="1" gridSize="10" guides="1" tooltips="1" connect="1" arrows="1" fold="1" page="1" pageScale="1" pageWidth="1100" pageHeight="850" math="0" shadow="0">
      <root>
        <mxCell id="0" />
        <mxCell id="1" parent="0" />
        <mxCell id="BPUPT0OHVQ3fbzKF05TD-2" value="" style="rounded=1;whiteSpace=wrap;html=1;fillColor=#ffe6cc;strokeColor=#d79b00;fillStyle=auto;strokeWidth=4;fontSize=9;" parent="1" vertex="1">
          <mxGeometry x="-6340" y="-840" width="360" height="100" as="geometry" />
        </mxCell>
        <mxCell id="ZdHZs-xIcd3arrK55Dnx-14" value="&lt;b style=&quot;font-size: 18px;&quot;&gt;MV2PLUS-r16-7&lt;/b&gt;" style="text;html=1;align=center;verticalAlign=middle;resizable=0;points=[];autosize=1;strokeColor=none;fillColor=none;fontSize=18;fontColor=default;fontStyle=0;" parent="1" vertex="1">
          <mxGeometry x="-6338.549999999999" y="-843" width="160" height="40" as="geometry" />
        </mxCell>
        <mxCell id="jPhf9QpesXwXawj8Bi22-1" value="" style="rounded=1;whiteSpace=wrap;html=1;fillColor=none;strokeColor=#d79b00;strokeWidth=2;fontSize=9;" parent="1" vertex="1">
          <mxGeometry x="-6339.58" y="-808.13" width="190" height="60" as="geometry" />
        </mxCell>
        <mxCell id="jPhf9QpesXwXawj8Bi22-2" value="&lt;font style=&quot;&quot;&gt;brlan0&lt;br&gt;&lt;span style=&quot;font-weight: normal;&quot;&gt;&lt;br&gt;192.168.0.1 / 24&lt;/span&gt;&lt;br&gt;&lt;span style=&quot;font-weight: 400;&quot;&gt;3001:dae:0:f000:216:3eff:fedd:3b1f&lt;/span&gt;&lt;span style=&quot;font-weight: normal;&quot;&gt;&amp;nbsp;/ 64&lt;/span&gt;&lt;br style=&quot;font-size: 10px;&quot;&gt;&lt;/font&gt;" style="text;strokeColor=none;align=center;fillColor=none;html=1;verticalAlign=top;whiteSpace=wrap;rounded=1;fontSize=10;fontStyle=1" parent="1" vertex="1">
          <mxGeometry x="-6339.58" y="-808.13" width="189.58" height="60" as="geometry" />
        </mxCell>
        <mxCell id="jPhf9QpesXwXawj8Bi22-3" value="&lt;b style=&quot;font-size: 9px;&quot;&gt;eth1&lt;/b&gt;" style="rounded=1;whiteSpace=wrap;html=1;fillColor=none;strokeColor=#d79b00;fontSize=9;" parent="1" vertex="1">
          <mxGeometry x="-6330" y="-800" width="40" height="20" as="geometry" />
        </mxCell>
        <mxCell id="jPhf9QpesXwXawj8Bi22-4" value="eth0" style="rounded=1;whiteSpace=wrap;html=1;fillColor=none;strokeColor=#d79b00;fontSize=10;fontStyle=1;strokeWidth=2;" parent="1" vertex="1">
          <mxGeometry x="-6020" y="-800" width="40" height="50" as="geometry" />
        </mxCell>
        <mxCell id="jPhf9QpesXwXawj8Bi22-5" value="&lt;b style=&quot;font-size: 10px;&quot;&gt;erouter1&lt;br&gt;&lt;/b&gt;10.107.200.110&lt;br&gt;2001:dae:7:1::254" style="rounded=1;whiteSpace=wrap;html=1;align=center;fillColor=none;strokeColor=#d79b00;fontSize=10;strokeWidth=2;verticalAlign=top;" parent="1" vertex="1">
          <mxGeometry x="-6140.58" y="-800" width="120" height="50" as="geometry" />
        </mxCell>
        <mxCell id="jPhf9QpesXwXawj8Bi22-6" value="&lt;b style=&quot;font-size: 12px;&quot;&gt;&#39;wan&#39;&lt;/b&gt;&lt;br style=&quot;font-size: 12px;&quot;&gt;bridge" style="shape=trapezoid;perimeter=trapezoidPerimeter;whiteSpace=wrap;html=1;fixedSize=1;fontSize=12;fillColor=#f5f5f5;fontColor=#333333;strokeColor=#666666;" parent="1" vertex="1">
          <mxGeometry x="-5934.58" y="-588" width="70" height="30" as="geometry" />
        </mxCell>
        <mxCell id="jPhf9QpesXwXawj8Bi22-7" value="" style="rounded=1;whiteSpace=wrap;html=1;fillColor=#d5e8d4;strokeColor=#82b366;strokeWidth=3;fontSize=9;" parent="1" vertex="1">
          <mxGeometry x="-5808.6" y="-180" width="214.58" height="75.13" as="geometry" />
        </mxCell>
        <mxCell id="jPhf9QpesXwXawj8Bi22-11" value="&lt;font style=&quot;font-size: 10px;&quot;&gt;eth0&lt;br style=&quot;font-size: 10px;&quot;&gt;&lt;br style=&quot;font-size: 10px;&quot;&gt;&lt;span style=&quot;font-weight: normal; font-size: 10px;&quot;&gt;10.10.10.200 / 24&lt;br style=&quot;font-size: 10px;&quot;&gt;2001:dbf:0:1::200 / 64&lt;/span&gt;&lt;br style=&quot;font-size: 10px;&quot;&gt;&lt;/font&gt;" style="rounded=1;whiteSpace=wrap;html=1;fillColor=none;strokeColor=#82b366;fontSize=10;fontStyle=1;strokeWidth=2;" parent="1" vertex="1">
          <mxGeometry x="-5719.58" y="-180" width="125.56" height="54.51" as="geometry" />
        </mxCell>
        <mxCell id="VWxw-bLilHhJzbKpekQc-5" value="" style="endArrow=none;html=1;rounded=0;fontSize=9;" parent="1" source="VEIhGE11iWbtG9OPqQKF-5" target="jPhf9QpesXwXawj8Bi22-3" edge="1">
          <mxGeometry width="50" height="50" relative="1" as="geometry">
            <mxPoint x="-6542.285" y="-733.3111924099501" as="sourcePoint" />
            <mxPoint x="-6434.300576409391" y="-789.2599999999999" as="targetPoint" />
            <Array as="points" />
          </mxGeometry>
        </mxCell>
        <mxCell id="VWxw-bLilHhJzbKpekQc-7" value="" style="endArrow=none;html=1;rounded=0;fontSize=9;" parent="1" source="jPhf9QpesXwXawj8Bi22-6" target="jPhf9QpesXwXawj8Bi22-4" edge="1">
          <mxGeometry width="50" height="50" relative="1" as="geometry">
            <mxPoint x="-5964.58" y="-759.79" as="sourcePoint" />
            <mxPoint x="-6507.674615384615" y="-527.99" as="targetPoint" />
          </mxGeometry>
        </mxCell>
        <mxCell id="VEIhGE11iWbtG9OPqQKF-1" value="" style="rounded=1;whiteSpace=wrap;html=1;fillColor=#dae8fc;strokeColor=#6c8ebf;strokeWidth=3;fontSize=9;" parent="1" vertex="1">
          <mxGeometry x="-5850.039999999999" y="-841.13" width="277.66" height="160" as="geometry" />
        </mxCell>
        <mxCell id="VEIhGE11iWbtG9OPqQKF-5" value="" style="shape=trapezoid;perimeter=trapezoidPerimeter;whiteSpace=wrap;html=1;fixedSize=1;fontSize=12;fillColor=#f5f5f5;fontColor=#333333;strokeColor=#666666;rotation=-90;" parent="1" vertex="1">
          <mxGeometry x="-6398.66" y="-785.8" width="60.69" height="21.2" as="geometry" />
        </mxCell>
        <mxCell id="VEIhGE11iWbtG9OPqQKF-6" value="" style="endArrow=none;html=1;rounded=0;fontSize=9;" parent="1" source="jPhf9QpesXwXawj8Bi22-6" target="TkQ-gT52N2ZANkxyGBpz-6" edge="1">
          <mxGeometry width="50" height="50" relative="1" as="geometry">
            <mxPoint x="-5894.75999702779" y="-586.1300000000001" as="sourcePoint" />
            <mxPoint x="-5842.845714285713" y="-751.1299999999999" as="targetPoint" />
          </mxGeometry>
        </mxCell>
        <mxCell id="VEIhGE11iWbtG9OPqQKF-7" value="&lt;b style=&quot;font-size: 18px;&quot;&gt;BNG-7&lt;/b&gt;" style="text;html=1;align=center;verticalAlign=middle;resizable=0;points=[];autosize=1;strokeColor=none;fillColor=none;fontSize=18;fontColor=default;fontStyle=0;" parent="1" vertex="1">
          <mxGeometry x="-5739.619999999999" y="-843" width="80" height="40" as="geometry" />
        </mxCell>
        <mxCell id="VEIhGE11iWbtG9OPqQKF-8" value="&lt;b style=&quot;font-size: 18px;&quot;&gt;ACS&lt;/b&gt;" style="text;html=1;align=center;verticalAlign=middle;resizable=0;points=[];autosize=1;strokeColor=none;fillColor=none;fontSize=18;fontStyle=0;fontColor=default;" parent="1" vertex="1">
          <mxGeometry x="-5798.599999999999" y="-175.30000000000007" width="60" height="40" as="geometry" />
        </mxCell>
        <mxCell id="mIAgexFHFYWs2OW3OZyE-1" value="&lt;font style=&quot;font-size: 10px;&quot;&gt;&lt;font style=&quot;font-size: 10px;&quot;&gt;lxdbr1&lt;/font&gt;&lt;/font&gt;" style="shape=trapezoid;perimeter=trapezoidPerimeter;whiteSpace=wrap;html=1;fixedSize=1;fontSize=10;fontStyle=1;fillColor=#f5f5f5;fontColor=#333333;strokeColor=#666666;" parent="1" vertex="1">
          <mxGeometry x="-5559.58" y="-544.87" width="60" height="30" as="geometry" />
        </mxCell>
        <mxCell id="mIAgexFHFYWs2OW3OZyE-3" value="" style="endArrow=none;html=1;rounded=0;fontSize=9;" parent="1" source="mIAgexFHFYWs2OW3OZyE-1" target="mIAgexFHFYWs2OW3OZyE-2" edge="1">
          <mxGeometry width="50" height="50" relative="1" as="geometry">
            <mxPoint x="-5869.53" y="-642.65" as="sourcePoint" />
            <mxPoint x="-5731.813576248313" y="-705.85" as="targetPoint" />
            <Array as="points">
              <mxPoint x="-5539.58" y="-772.87" />
            </Array>
          </mxGeometry>
        </mxCell>
        <mxCell id="mIAgexFHFYWs2OW3OZyE-2" value="eth0&lt;br style=&quot;font-size: 10px;&quot;&gt;&lt;br style=&quot;font-size: 10px;&quot;&gt;&lt;span style=&quot;font-weight: normal;&quot;&gt;10.10.10.107 / 24&lt;/span&gt;&lt;br&gt;&lt;span style=&quot;font-weight: 400;&quot;&gt;2001:dbf:0:1::107&lt;/span&gt;" style="rounded=1;whiteSpace=wrap;html=1;fillColor=none;strokeColor=#6c8ebf;fontSize=10;fontStyle=1;strokeWidth=2;" parent="1" vertex="1">
          <mxGeometry x="-5681.399999999999" y="-803" width="109.58" height="60" as="geometry" />
        </mxCell>
        <mxCell id="mIAgexFHFYWs2OW3OZyE-4" value="" style="endArrow=none;html=1;rounded=0;fontSize=9;" parent="1" source="jPhf9QpesXwXawj8Bi22-11" target="mIAgexFHFYWs2OW3OZyE-1" edge="1">
          <mxGeometry width="50" height="50" relative="1" as="geometry">
            <mxPoint x="-5593.73" y="-530" as="sourcePoint" />
            <mxPoint x="-5516.82" y="-203" as="targetPoint" />
            <Array as="points">
              <mxPoint x="-5549.58" y="-214.87" />
            </Array>
          </mxGeometry>
        </mxCell>
        <mxCell id="TkQ-gT52N2ZANkxyGBpz-6" value="eth1&lt;br&gt;&lt;br&gt;&lt;span style=&quot;font-weight: normal;&quot;&gt;10.107.200.1 / 16&lt;/span&gt;&lt;br&gt;&lt;span style=&quot;font-weight: normal;&quot;&gt;2001:dae:7:1::129&lt;/span&gt;" style="rounded=1;whiteSpace=wrap;html=1;fillColor=none;strokeColor=#6c8ebf;fontSize=10;fontStyle=1;strokeWidth=2;verticalAlign=top;" parent="1" vertex="1">
          <mxGeometry x="-5850.039999999999" y="-803" width="100.42" height="60" as="geometry" />
        </mxCell>
        <mxCell id="rbybgyyjFFzyAAJE25rD-17" value="" style="rounded=1;whiteSpace=wrap;html=1;fillColor=#dae8fc;strokeColor=#6c8ebf;strokeWidth=3;fontSize=9;" parent="1" vertex="1">
          <mxGeometry x="-5850.039999999999" y="-641.13" width="277.66" height="160" as="geometry" />
        </mxCell>
        <mxCell id="rbybgyyjFFzyAAJE25rD-18" value="eth1" style="rounded=1;whiteSpace=wrap;html=1;fillColor=none;strokeColor=#6c8ebf;fontSize=10;fontStyle=1;strokeWidth=2;" parent="1" vertex="1">
          <mxGeometry x="-5850.039999999999" y="-601.13" width="40" height="60" as="geometry" />
        </mxCell>
        <mxCell id="rbybgyyjFFzyAAJE25rD-19" value="&lt;b style=&quot;font-size: 18px;&quot;&gt;BNG-8&lt;/b&gt;" style="text;html=1;align=center;verticalAlign=middle;resizable=0;points=[];autosize=1;strokeColor=none;fillColor=none;fontSize=18;fontColor=default;fontStyle=0;" parent="1" vertex="1">
          <mxGeometry x="-5684.109999999999" y="-641.13" width="80" height="40" as="geometry" />
        </mxCell>
        <mxCell id="rbybgyyjFFzyAAJE25rD-22" value="eth1.100&lt;br&gt;&lt;br&gt;&lt;span style=&quot;font-weight: normal;&quot;&gt;10.108.200.1 / 16&lt;br&gt;2001:dae:8:1::129 / 64&lt;/span&gt;" style="rounded=1;whiteSpace=wrap;html=1;fillColor=none;strokeColor=#6c8ebf;fontSize=10;fontStyle=1;strokeWidth=2;verticalAlign=top;" parent="1" vertex="1">
          <mxGeometry x="-5810.039999999999" y="-601.13" width="120" height="60" as="geometry" />
        </mxCell>
        <mxCell id="rbybgyyjFFzyAAJE25rD-23" value="" style="rounded=1;whiteSpace=wrap;html=1;fillColor=#dae8fc;strokeColor=#6c8ebf;strokeWidth=3;fontSize=9;" parent="1" vertex="1">
          <mxGeometry x="-5850.039999999999" y="-443.63" width="277.66" height="240" as="geometry" />
        </mxCell>
        <mxCell id="rbybgyyjFFzyAAJE25rD-24" value="eth1" style="rounded=1;whiteSpace=wrap;html=1;fillColor=none;strokeColor=#6c8ebf;fontSize=10;fontStyle=1;strokeWidth=2;" parent="1" vertex="1">
          <mxGeometry x="-5850.039999999999" y="-423.63" width="40" height="180" as="geometry" />
        </mxCell>
        <mxCell id="rbybgyyjFFzyAAJE25rD-25" value="&lt;b style=&quot;font-size: 18px;&quot;&gt;BNG-9&lt;/b&gt;" style="text;html=1;align=center;verticalAlign=middle;resizable=0;points=[];autosize=1;strokeColor=none;fillColor=none;fontSize=18;fontColor=default;fontStyle=0;" parent="1" vertex="1">
          <mxGeometry x="-5684.109999999999" y="-443.63" width="80" height="40" as="geometry" />
        </mxCell>
        <mxCell id="rbybgyyjFFzyAAJE25rD-27" value="eth1.881&lt;br&gt;&lt;br style=&quot;border-color: var(--border-color);&quot;&gt;&lt;span style=&quot;font-weight: normal;&quot;&gt;10.177.200.1 / 16&lt;br style=&quot;border-color: var(--border-color);&quot;&gt;2001:dbd:0:1::129 / 64&lt;/span&gt;" style="rounded=1;whiteSpace=wrap;html=1;fillColor=none;strokeColor=#6c8ebf;fontSize=10;fontStyle=1;strokeWidth=2;verticalAlign=top;" parent="1" vertex="1">
          <mxGeometry x="-5810.039999999999" y="-363.63" width="120" height="60" as="geometry" />
        </mxCell>
        <mxCell id="rbybgyyjFFzyAAJE25rD-28" value="eth1.1081&lt;br&gt;&lt;br&gt;&lt;span style=&quot;font-weight: normal;&quot;&gt;10.178.200.1 / 16&lt;br&gt;2001:dbe:0:1::129 / 64&lt;/span&gt;" style="rounded=1;whiteSpace=wrap;html=1;fillColor=none;strokeColor=#6c8ebf;fontSize=10;fontStyle=1;strokeWidth=2;verticalAlign=top;" parent="1" vertex="1">
          <mxGeometry x="-5810.039999999999" y="-423.63" width="120" height="60" as="geometry" />
        </mxCell>
        <mxCell id="rbybgyyjFFzyAAJE25rD-30" value="eth0&lt;br style=&quot;font-size: 10px;&quot;&gt;&lt;br style=&quot;font-size: 10px;&quot;&gt;&lt;span style=&quot;font-weight: normal;&quot;&gt;10.10.10.108 / 24&lt;/span&gt;&lt;br&gt;&lt;span style=&quot;font-weight: 400;&quot;&gt;2001:dbf:0:1::108 / 64&lt;/span&gt;" style="rounded=1;whiteSpace=wrap;html=1;fillColor=none;strokeColor=#6c8ebf;fontSize=10;fontStyle=1;strokeWidth=2;" parent="1" vertex="1">
          <mxGeometry x="-5681.399999999999" y="-603" width="109.58" height="60" as="geometry" />
        </mxCell>
        <mxCell id="rbybgyyjFFzyAAJE25rD-31" value="eth0&lt;br style=&quot;font-size: 10px;&quot;&gt;&lt;br style=&quot;font-size: 10px;&quot;&gt;&lt;span style=&quot;font-weight: normal;&quot;&gt;10.10.10.109 / 24&lt;/span&gt;&lt;br&gt;&lt;span style=&quot;font-weight: 400;&quot;&gt;2001:dbf:0:1::109&lt;/span&gt;" style="rounded=1;whiteSpace=wrap;html=1;fillColor=none;strokeColor=#6c8ebf;fontSize=10;fontStyle=1;strokeWidth=2;" parent="1" vertex="1">
          <mxGeometry x="-5681.399999999999" y="-405.5" width="109.58" height="60" as="geometry" />
        </mxCell>
        <mxCell id="rbybgyyjFFzyAAJE25rD-32" value="eth1.981&lt;br&gt;&lt;br style=&quot;border-color: var(--border-color);&quot;&gt;&lt;span style=&quot;font-weight: normal;&quot;&gt;10.179.200.1 / 16&lt;br style=&quot;border-color: var(--border-color);&quot;&gt;2001:dbc:0:1::129 / 64&lt;/span&gt;" style="rounded=1;whiteSpace=wrap;html=1;fillColor=none;strokeColor=#6c8ebf;fontSize=10;fontStyle=1;strokeWidth=2;verticalAlign=top;" parent="1" vertex="1">
          <mxGeometry x="-5810.039999999999" y="-303.63" width="120" height="60" as="geometry" />
        </mxCell>
        <mxCell id="rbybgyyjFFzyAAJE25rD-34" value="" style="endArrow=none;html=1;rounded=0;fontSize=9;" parent="1" source="jPhf9QpesXwXawj8Bi22-6" target="-lX0_qhmXyuA239JzsIQ-22" edge="1">
          <mxGeometry width="50" height="50" relative="1" as="geometry">
            <mxPoint x="-5896.58" y="-568" as="sourcePoint" />
            <mxPoint x="-5979.22" y="-611.3653151344843" as="targetPoint" />
          </mxGeometry>
        </mxCell>
        <mxCell id="rbybgyyjFFzyAAJE25rD-35" value="" style="endArrow=none;html=1;rounded=0;fontSize=9;" parent="1" source="jPhf9QpesXwXawj8Bi22-6" target="rbybgyyjFFzyAAJE25rD-18" edge="1">
          <mxGeometry width="50" height="50" relative="1" as="geometry">
            <mxPoint x="-5877.379999999999" y="-571.1300000000001" as="sourcePoint" />
            <mxPoint x="-6015.619999999999" y="-559.13" as="targetPoint" />
          </mxGeometry>
        </mxCell>
        <mxCell id="rbybgyyjFFzyAAJE25rD-36" value="" style="endArrow=none;html=1;rounded=0;fontSize=9;" parent="1" source="jPhf9QpesXwXawj8Bi22-6" edge="1" target="-lX0_qhmXyuA239JzsIQ-35">
          <mxGeometry width="50" height="50" relative="1" as="geometry">
            <mxPoint x="-5902.58" y="-545" as="sourcePoint" />
            <mxPoint x="-5980.58" y="-508.80148514851487" as="targetPoint" />
          </mxGeometry>
        </mxCell>
        <mxCell id="rbybgyyjFFzyAAJE25rD-37" value="" style="endArrow=none;html=1;rounded=0;fontSize=9;" parent="1" source="rbybgyyjFFzyAAJE25rD-24" target="jPhf9QpesXwXawj8Bi22-6" edge="1">
          <mxGeometry width="50" height="50" relative="1" as="geometry">
            <mxPoint x="-5937.619999999999" y="-543.13" as="sourcePoint" />
            <mxPoint x="-5897.8111578947355" y="-556.1300000000001" as="targetPoint" />
          </mxGeometry>
        </mxCell>
        <mxCell id="rbybgyyjFFzyAAJE25rD-38" value="" style="rounded=1;whiteSpace=wrap;html=1;fillColor=#ffe6cc;strokeColor=#d79b00;fillStyle=auto;strokeWidth=4;fontSize=9;" parent="1" vertex="1">
          <mxGeometry x="-6341.31" y="-390" width="370" height="170" as="geometry" />
        </mxCell>
        <mxCell id="rbybgyyjFFzyAAJE25rD-39" value="&lt;b style=&quot;font-size: 18px;&quot;&gt;MV3-r16-9&lt;/b&gt;" style="text;html=1;align=center;verticalAlign=middle;resizable=0;points=[];autosize=1;strokeColor=none;fillColor=none;fontSize=18;fontColor=default;fontStyle=0;" parent="1" vertex="1">
          <mxGeometry x="-6341.3099999999995" y="-390" width="110" height="40" as="geometry" />
        </mxCell>
        <mxCell id="rbybgyyjFFzyAAJE25rD-40" value="" style="rounded=1;whiteSpace=wrap;html=1;fillColor=none;strokeColor=#d79b00;strokeWidth=2;fontSize=9;" parent="1" vertex="1">
          <mxGeometry x="-6335.889999999999" y="-312.71" width="185" height="82.71" as="geometry" />
        </mxCell>
        <mxCell id="rbybgyyjFFzyAAJE25rD-41" value="&lt;font style=&quot;&quot;&gt;brlan0&lt;br&gt;&lt;span style=&quot;font-weight: normal;&quot;&gt;&lt;br&gt;192.168.0.1/24&lt;/span&gt;&lt;br&gt;&lt;span style=&quot;font-weight: 400;&quot;&gt;3001:dbe:0:f000:6e3:1aff:fec5:946f&lt;/span&gt;&lt;span style=&quot;font-weight: normal;&quot;&gt;&amp;nbsp;/ 64&lt;/span&gt;&lt;br style=&quot;font-size: 10px;&quot;&gt;&lt;/font&gt;" style="text;strokeColor=none;align=center;fillColor=none;html=1;verticalAlign=top;whiteSpace=wrap;rounded=1;fontSize=10;fontStyle=1" parent="1" vertex="1">
          <mxGeometry x="-6335.889999999999" y="-311.9200000000001" width="180" height="49.21" as="geometry" />
        </mxCell>
        <mxCell id="rbybgyyjFFzyAAJE25rD-42" value="&lt;b style=&quot;font-size: 9px;&quot;&gt;eth1&lt;/b&gt;" style="rounded=1;whiteSpace=wrap;html=1;fillColor=none;strokeColor=#d79b00;fontSize=9;" parent="1" vertex="1">
          <mxGeometry x="-6331.3099999999995" y="-300" width="40" height="20" as="geometry" />
        </mxCell>
        <mxCell id="rbybgyyjFFzyAAJE25rD-43" value="eth0" style="rounded=1;whiteSpace=wrap;html=1;fillColor=none;strokeColor=#d79b00;fontSize=10;fontStyle=1;strokeWidth=2;" parent="1" vertex="1">
          <mxGeometry x="-6011.31" y="-370" width="40" height="130" as="geometry" />
        </mxCell>
        <mxCell id="rbybgyyjFFzyAAJE25rD-44" value="&lt;b style=&quot;font-size: 10px;&quot;&gt;erouter0 (1081)&lt;br&gt;&lt;/b&gt;10.178.200.100 / 24&lt;br&gt;2001:dbe:0:1::254 / 64" style="rounded=1;whiteSpace=wrap;html=1;align=center;fillColor=none;strokeColor=#d79b00;fontSize=10;strokeWidth=2;verticalAlign=top;" parent="1" vertex="1">
          <mxGeometry x="-6141.31" y="-380" width="130" height="50" as="geometry" />
        </mxCell>
        <mxCell id="rbybgyyjFFzyAAJE25rD-45" value="&lt;b style=&quot;font-size: 10px;&quot;&gt;mg0 (881)&lt;br&gt;&lt;/b&gt;10.177.200.100 / 24&lt;br&gt;2001:dbd:0:1::254 / 64&lt;span style=&quot;font-size: 10px;&quot;&gt;&lt;br style=&quot;font-size: 10px;&quot;&gt;&lt;/span&gt;" style="rounded=1;whiteSpace=wrap;html=1;align=center;fillColor=none;strokeColor=#d79b00;fontSize=10;strokeWidth=2;verticalAlign=top;" parent="1" vertex="1">
          <mxGeometry x="-6140.580000000001" y="-330" width="130" height="50" as="geometry" />
        </mxCell>
        <mxCell id="rbybgyyjFFzyAAJE25rD-46" value="&lt;b style=&quot;font-size: 10px;&quot;&gt;voip0 (981)&lt;br&gt;&lt;/b&gt;10.179.200.100 / 24&lt;br&gt;2001:dbc:0:1::254 / 64&lt;span style=&quot;font-size: 10px;&quot;&gt;&lt;br style=&quot;font-size: 10px;&quot;&gt;&lt;/span&gt;" style="rounded=1;whiteSpace=wrap;html=1;align=center;fillColor=none;strokeColor=#d79b00;fontSize=10;strokeWidth=2;verticalAlign=top;" parent="1" vertex="1">
          <mxGeometry x="-6140.580000000001" y="-280" width="130" height="50" as="geometry" />
        </mxCell>
        <mxCell id="rbybgyyjFFzyAAJE25rD-47" value="" style="endArrow=none;html=1;rounded=0;fontSize=9;" parent="1" source="jPhf9QpesXwXawj8Bi22-6" target="rbybgyyjFFzyAAJE25rD-43" edge="1">
          <mxGeometry width="50" height="50" relative="1" as="geometry">
            <mxPoint x="-5897.58" y="-547.87" as="sourcePoint" />
            <mxPoint x="-5974.58" y="-411.87" as="targetPoint" />
          </mxGeometry>
        </mxCell>
        <mxCell id="rbybgyyjFFzyAAJE25rD-50" value="" style="endArrow=none;html=1;rounded=0;fontSize=9;" parent="1" source="mIAgexFHFYWs2OW3OZyE-1" target="rbybgyyjFFzyAAJE25rD-30" edge="1">
          <mxGeometry width="50" height="50" relative="1" as="geometry">
            <mxPoint x="-5496.82" y="-532.87" as="sourcePoint" />
            <mxPoint x="-5586.82" y="-762.87" as="targetPoint" />
            <Array as="points">
              <mxPoint x="-5571.82" y="-554.87" />
            </Array>
          </mxGeometry>
        </mxCell>
        <mxCell id="rbybgyyjFFzyAAJE25rD-51" value="" style="endArrow=none;html=1;rounded=0;fontSize=9;" parent="1" source="mIAgexFHFYWs2OW3OZyE-1" target="rbybgyyjFFzyAAJE25rD-31" edge="1">
          <mxGeometry width="50" height="50" relative="1" as="geometry">
            <mxPoint x="-5486.82" y="-522.87" as="sourcePoint" />
            <mxPoint x="-5586.82" y="-563.87" as="targetPoint" />
            <Array as="points">
              <mxPoint x="-5571.82" y="-444.87" />
            </Array>
          </mxGeometry>
        </mxCell>
        <mxCell id="rbybgyyjFFzyAAJE25rD-52" value="" style="rounded=1;whiteSpace=wrap;html=1;fillColor=#f5f5f5;strokeColor=#666666;strokeWidth=3;fontSize=9;fontColor=#333333;" parent="1" vertex="1">
          <mxGeometry x="-5806.82" y="-90" width="214.58" height="82.71" as="geometry" />
        </mxCell>
        <mxCell id="rbybgyyjFFzyAAJE25rD-53" value="&lt;font style=&quot;font-size: 10px;&quot;&gt;eth0&lt;br style=&quot;font-size: 10px;&quot;&gt;&lt;br style=&quot;font-size: 10px;&quot;&gt;&lt;span style=&quot;font-weight: normal; font-size: 10px;&quot;&gt;10.10.10.150 / 24&lt;br style=&quot;font-size: 10px;&quot;&gt;2001:dbf:0:1::150/ 64&lt;/span&gt;&lt;br style=&quot;font-size: 10px;&quot;&gt;&lt;/font&gt;" style="rounded=1;whiteSpace=wrap;html=1;fillColor=none;strokeColor=#666666;fontSize=10;fontStyle=1;strokeWidth=2;fontColor=#333333;" parent="1" vertex="1">
          <mxGeometry x="-5717.8" y="-90" width="125.56" height="62.09" as="geometry" />
        </mxCell>
        <mxCell id="rbybgyyjFFzyAAJE25rD-54" value="&lt;b style=&quot;font-size: 18px;&quot;&gt;SERVER&lt;/b&gt;" style="text;html=1;align=center;verticalAlign=middle;resizable=0;points=[];autosize=1;strokeColor=none;fillColor=none;fontSize=18;fontStyle=0;fontColor=#333333;" parent="1" vertex="1">
          <mxGeometry x="-5816.82" y="-77.72000000000007" width="100" height="40" as="geometry" />
        </mxCell>
        <mxCell id="rbybgyyjFFzyAAJE25rD-55" value="" style="endArrow=none;html=1;rounded=0;fontSize=9;" parent="1" source="rbybgyyjFFzyAAJE25rD-53" target="mIAgexFHFYWs2OW3OZyE-1" edge="1">
          <mxGeometry width="50" height="50" relative="1" as="geometry">
            <mxPoint x="-5612.58" y="-174.87" as="sourcePoint" />
            <mxPoint x="-5531.58" y="-504.87" as="targetPoint" />
            <Array as="points">
              <mxPoint x="-5531.58" y="-124.87" />
            </Array>
          </mxGeometry>
        </mxCell>
        <mxCell id="rbybgyyjFFzyAAJE25rD-56" value="" style="rounded=1;whiteSpace=wrap;html=1;fillColor=#fff2cc;strokeColor=#d6b656;strokeWidth=3;fontSize=9;" parent="1" vertex="1">
          <mxGeometry x="-6585" y="-834.63" width="200" height="90" as="geometry" />
        </mxCell>
        <mxCell id="rbybgyyjFFzyAAJE25rD-57" value="&lt;font style=&quot;&quot;&gt;eth0&lt;br&gt;&lt;span style=&quot;font-size: 10px; font-weight: normal;&quot;&gt;192.168.0.115 / 24&lt;br style=&quot;font-size: 10px;&quot;&gt;&lt;/span&gt;&lt;span style=&quot;font-weight: normal;&quot;&gt;3001:dae:0:f000::da&lt;br&gt;3001:dae:0:f000:216:3eff:fe94:807c&lt;/span&gt;&lt;br style=&quot;font-size: 10px;&quot;&gt;&lt;/font&gt;" style="rounded=1;whiteSpace=wrap;html=1;fillColor=none;strokeColor=#d6b656;fontSize=10;fontStyle=1;strokeWidth=2;" parent="1" vertex="1">
          <mxGeometry x="-6580" y="-799.26" width="190" height="50" as="geometry" />
        </mxCell>
        <mxCell id="rbybgyyjFFzyAAJE25rD-58" value="&lt;b style=&quot;font-size: 14px;&quot;&gt;CLIENT-MV2PLUS-r16-7&lt;/b&gt;" style="text;html=1;align=center;verticalAlign=middle;resizable=0;points=[];autosize=1;strokeColor=none;fillColor=none;fontSize=14;fontStyle=0;" parent="1" vertex="1">
          <mxGeometry x="-6589.999999999999" y="-830.76" width="180" height="30" as="geometry" />
        </mxCell>
        <mxCell id="rbybgyyjFFzyAAJE25rD-59" value="" style="endArrow=none;html=1;rounded=0;fontSize=9;entryX=0.5;entryY=0;entryDx=0;entryDy=0;" parent="1" source="rbybgyyjFFzyAAJE25rD-57" target="VEIhGE11iWbtG9OPqQKF-5" edge="1">
          <mxGeometry width="50" height="50" relative="1" as="geometry">
            <mxPoint x="-6466.32" y="-714" as="sourcePoint" />
            <mxPoint x="-6370" y="-759.13" as="targetPoint" />
            <Array as="points" />
          </mxGeometry>
        </mxCell>
        <mxCell id="ugkEreDL_NRRBx4p7EIG-24" value="" style="endArrow=none;html=1;rounded=0;fontSize=9;" parent="1" source="-lX0_qhmXyuA239JzsIQ-76" target="rbybgyyjFFzyAAJE25rD-42" edge="1">
          <mxGeometry width="50" height="50" relative="1" as="geometry">
            <mxPoint x="-6366.30168909825" y="-314.7" as="sourcePoint" />
            <mxPoint x="-6288.08" y="-892.4100000000001" as="targetPoint" />
            <Array as="points" />
          </mxGeometry>
        </mxCell>
        <mxCell id="-lX0_qhmXyuA239JzsIQ-16" value="" style="endArrow=none;html=1;rounded=0;fontSize=9;" parent="1" source="jPhf9QpesXwXawj8Bi22-6" edge="1">
          <mxGeometry width="50" height="50" relative="1" as="geometry">
            <mxPoint x="-5895" y="-548" as="sourcePoint" />
            <mxPoint x="-5984.777020903743" y="-168.66000000000008" as="targetPoint" />
          </mxGeometry>
        </mxCell>
        <mxCell id="-lX0_qhmXyuA239JzsIQ-17" value="" style="rounded=1;whiteSpace=wrap;html=1;fillColor=#ffe6cc;strokeColor=#d79b00;fillStyle=auto;strokeWidth=4;fontSize=9;" parent="1" vertex="1">
          <mxGeometry x="-6340" y="-730" width="360" height="100" as="geometry" />
        </mxCell>
        <mxCell id="-lX0_qhmXyuA239JzsIQ-18" value="&lt;b style=&quot;font-size: 18px;&quot;&gt;MV2PLUS-r17-7&lt;/b&gt;" style="text;html=1;align=center;verticalAlign=middle;resizable=0;points=[];autosize=1;strokeColor=none;fillColor=none;fontSize=18;fontColor=default;fontStyle=0;" parent="1" vertex="1">
          <mxGeometry x="-6341.3099999999995" y="-733.5" width="160" height="40" as="geometry" />
        </mxCell>
        <mxCell id="-lX0_qhmXyuA239JzsIQ-19" value="" style="rounded=1;whiteSpace=wrap;html=1;fillColor=none;strokeColor=#d79b00;strokeWidth=2;fontSize=9;" parent="1" vertex="1">
          <mxGeometry x="-6339.58" y="-697" width="190" height="60" as="geometry" />
        </mxCell>
        <mxCell id="-lX0_qhmXyuA239JzsIQ-20" value="&lt;font style=&quot;&quot;&gt;brlan0&lt;br&gt;&lt;span style=&quot;font-weight: normal;&quot;&gt;&lt;br&gt;192.168.0.1 / 24&lt;/span&gt;&lt;br&gt;&lt;span style=&quot;font-weight: 400;&quot;&gt;3001:dae:0:f000:216:3eff:fedd:3b1f&lt;/span&gt;&lt;span style=&quot;font-weight: normal;&quot;&gt;&amp;nbsp;/ 64&lt;/span&gt;&lt;br style=&quot;font-size: 10px;&quot;&gt;&lt;/font&gt;" style="text;strokeColor=none;align=center;fillColor=none;html=1;verticalAlign=top;whiteSpace=wrap;rounded=1;fontSize=10;fontStyle=1" parent="1" vertex="1">
          <mxGeometry x="-6339.58" y="-697" width="189.58" height="60" as="geometry" />
        </mxCell>
        <mxCell id="-lX0_qhmXyuA239JzsIQ-21" value="&lt;b style=&quot;font-size: 9px;&quot;&gt;eth1&lt;/b&gt;" style="rounded=1;whiteSpace=wrap;html=1;fillColor=none;strokeColor=#d79b00;fontSize=9;" parent="1" vertex="1">
          <mxGeometry x="-6330" y="-690" width="40" height="20" as="geometry" />
        </mxCell>
        <mxCell id="-lX0_qhmXyuA239JzsIQ-22" value="eth0" style="rounded=1;whiteSpace=wrap;html=1;fillColor=none;strokeColor=#d79b00;fontSize=10;fontStyle=1;strokeWidth=2;" parent="1" vertex="1">
          <mxGeometry x="-6020" y="-690" width="40" height="53" as="geometry" />
        </mxCell>
        <mxCell id="-lX0_qhmXyuA239JzsIQ-23" value="&lt;b style=&quot;font-size: 10px;&quot;&gt;erouter1&lt;br&gt;&lt;/b&gt;10.107.200.110&lt;br&gt;2001:dae:7:1::254" style="rounded=1;whiteSpace=wrap;html=1;align=center;fillColor=none;strokeColor=#d79b00;fontSize=10;strokeWidth=2;verticalAlign=top;" parent="1" vertex="1">
          <mxGeometry x="-6140.58" y="-690" width="120" height="53" as="geometry" />
        </mxCell>
        <mxCell id="-lX0_qhmXyuA239JzsIQ-24" value="" style="endArrow=none;html=1;rounded=0;fontSize=9;" parent="1" source="-lX0_qhmXyuA239JzsIQ-25" target="-lX0_qhmXyuA239JzsIQ-21" edge="1">
          <mxGeometry width="50" height="50" relative="1" as="geometry">
            <mxPoint x="-6542.285" y="-622.1811924099501" as="sourcePoint" />
            <mxPoint x="-6434.300576409391" y="-678.1299999999999" as="targetPoint" />
            <Array as="points" />
          </mxGeometry>
        </mxCell>
        <mxCell id="-lX0_qhmXyuA239JzsIQ-25" value="" style="shape=trapezoid;perimeter=trapezoidPerimeter;whiteSpace=wrap;html=1;fixedSize=1;fontSize=12;fillColor=#f5f5f5;fontColor=#333333;strokeColor=#666666;rotation=-90;" parent="1" vertex="1">
          <mxGeometry x="-6398.66" y="-674.67" width="60.69" height="21.2" as="geometry" />
        </mxCell>
        <mxCell id="-lX0_qhmXyuA239JzsIQ-26" value="" style="rounded=1;whiteSpace=wrap;html=1;fillColor=#fff2cc;strokeColor=#d6b656;strokeWidth=3;fontSize=9;" parent="1" vertex="1">
          <mxGeometry x="-6585" y="-723.5" width="200" height="90" as="geometry" />
        </mxCell>
        <mxCell id="-lX0_qhmXyuA239JzsIQ-27" value="&lt;font style=&quot;&quot;&gt;eth0&lt;br&gt;&lt;span style=&quot;font-size: 10px; font-weight: normal;&quot;&gt;192.168.0.115 / 24&lt;br style=&quot;font-size: 10px;&quot;&gt;&lt;/span&gt;&lt;span style=&quot;font-weight: normal;&quot;&gt;3001:dae:0:f000::da&lt;br&gt;3001:dae:0:f000:216:3eff:fe94:807c&lt;/span&gt;&lt;br style=&quot;font-size: 10px;&quot;&gt;&lt;/font&gt;" style="rounded=1;whiteSpace=wrap;html=1;fillColor=none;strokeColor=#d6b656;fontSize=10;fontStyle=1;strokeWidth=2;" parent="1" vertex="1">
          <mxGeometry x="-6580" y="-688.13" width="190" height="50" as="geometry" />
        </mxCell>
        <mxCell id="-lX0_qhmXyuA239JzsIQ-28" value="&lt;b style=&quot;font-size: 14px;&quot;&gt;CLIENT-MV2PLUS-r17-7&lt;/b&gt;" style="text;html=1;align=center;verticalAlign=middle;resizable=0;points=[];autosize=1;strokeColor=none;fillColor=none;fontSize=14;fontStyle=0;" parent="1" vertex="1">
          <mxGeometry x="-6589.999999999999" y="-719.63" width="180" height="30" as="geometry" />
        </mxCell>
        <mxCell id="-lX0_qhmXyuA239JzsIQ-29" value="" style="endArrow=none;html=1;rounded=0;fontSize=9;entryX=0.5;entryY=0;entryDx=0;entryDy=0;" parent="1" source="-lX0_qhmXyuA239JzsIQ-27" target="-lX0_qhmXyuA239JzsIQ-25" edge="1">
          <mxGeometry width="50" height="50" relative="1" as="geometry">
            <mxPoint x="-6466.32" y="-602.87" as="sourcePoint" />
            <mxPoint x="-6370" y="-648" as="targetPoint" />
            <Array as="points" />
          </mxGeometry>
        </mxCell>
        <mxCell id="-lX0_qhmXyuA239JzsIQ-30" value="" style="rounded=1;whiteSpace=wrap;html=1;fillColor=#ffe6cc;strokeColor=#d79b00;fillStyle=auto;strokeWidth=4;fontSize=9;" parent="1" vertex="1">
          <mxGeometry x="-6340" y="-620.5600000000001" width="360" height="100" as="geometry" />
        </mxCell>
        <mxCell id="-lX0_qhmXyuA239JzsIQ-31" value="&lt;b style=&quot;font-size: 18px;&quot;&gt;MV3-r16-8&lt;/b&gt;" style="text;html=1;align=center;verticalAlign=middle;resizable=0;points=[];autosize=1;strokeColor=none;fillColor=none;fontSize=18;fontColor=default;fontStyle=0;" parent="1" vertex="1">
          <mxGeometry x="-6340.58" y="-621.32" width="110" height="40" as="geometry" />
        </mxCell>
        <mxCell id="-lX0_qhmXyuA239JzsIQ-32" value="" style="rounded=1;whiteSpace=wrap;html=1;fillColor=none;strokeColor=#d79b00;strokeWidth=2;fontSize=9;" parent="1" vertex="1">
          <mxGeometry x="-6339.58" y="-588.69" width="190" height="60" as="geometry" />
        </mxCell>
        <mxCell id="-lX0_qhmXyuA239JzsIQ-33" value="&lt;font style=&quot;&quot;&gt;brlan0&lt;br&gt;&lt;span style=&quot;font-weight: normal;&quot;&gt;&lt;br&gt;192.168.0.1 / 24&lt;/span&gt;&lt;br&gt;&lt;span style=&quot;font-weight: 400;&quot;&gt;3001:dae:0:f000:216:3eff:fedd:3b1f&lt;/span&gt;&lt;span style=&quot;font-weight: normal;&quot;&gt;&amp;nbsp;/ 64&lt;/span&gt;&lt;br style=&quot;font-size: 10px;&quot;&gt;&lt;/font&gt;" style="text;strokeColor=none;align=center;fillColor=none;html=1;verticalAlign=top;whiteSpace=wrap;rounded=1;fontSize=10;fontStyle=1" parent="1" vertex="1">
          <mxGeometry x="-6339.58" y="-588.69" width="189.58" height="60" as="geometry" />
        </mxCell>
        <mxCell id="-lX0_qhmXyuA239JzsIQ-34" value="&lt;b style=&quot;font-size: 9px;&quot;&gt;eth1&lt;/b&gt;" style="rounded=1;whiteSpace=wrap;html=1;fillColor=none;strokeColor=#d79b00;fontSize=9;" parent="1" vertex="1">
          <mxGeometry x="-6330" y="-580.5600000000001" width="40" height="20" as="geometry" />
        </mxCell>
        <mxCell id="-lX0_qhmXyuA239JzsIQ-35" value="eth0" style="rounded=1;whiteSpace=wrap;html=1;fillColor=none;strokeColor=#d79b00;fontSize=10;fontStyle=1;strokeWidth=2;" parent="1" vertex="1">
          <mxGeometry x="-6020" y="-588.69" width="39.42" height="60" as="geometry" />
        </mxCell>
        <mxCell id="-lX0_qhmXyuA239JzsIQ-36" value="&lt;b style=&quot;font-size: 10px;&quot;&gt;erouter0&lt;br&gt;&lt;/b&gt;&lt;br&gt;10.107.200.110&lt;br&gt;2001:dae:7:1::254" style="rounded=1;whiteSpace=wrap;html=1;align=center;fillColor=none;strokeColor=#d79b00;fontSize=10;strokeWidth=2;verticalAlign=top;" parent="1" vertex="1">
          <mxGeometry x="-6140.58" y="-588.69" width="120" height="60" as="geometry" />
        </mxCell>
        <mxCell id="-lX0_qhmXyuA239JzsIQ-37" value="" style="endArrow=none;html=1;rounded=0;fontSize=9;" parent="1" source="-lX0_qhmXyuA239JzsIQ-38" target="-lX0_qhmXyuA239JzsIQ-34" edge="1">
          <mxGeometry width="50" height="50" relative="1" as="geometry">
            <mxPoint x="-6542.285" y="-513.8711924099501" as="sourcePoint" />
            <mxPoint x="-6434.300576409391" y="-569.8199999999999" as="targetPoint" />
            <Array as="points" />
          </mxGeometry>
        </mxCell>
        <mxCell id="-lX0_qhmXyuA239JzsIQ-38" value="" style="shape=trapezoid;perimeter=trapezoidPerimeter;whiteSpace=wrap;html=1;fixedSize=1;fontSize=12;fillColor=#f5f5f5;fontColor=#333333;strokeColor=#666666;rotation=-90;" parent="1" vertex="1">
          <mxGeometry x="-6398.66" y="-566.36" width="60.69" height="21.2" as="geometry" />
        </mxCell>
        <mxCell id="-lX0_qhmXyuA239JzsIQ-39" value="" style="rounded=1;whiteSpace=wrap;html=1;fillColor=#fff2cc;strokeColor=#d6b656;strokeWidth=3;fontSize=9;" parent="1" vertex="1">
          <mxGeometry x="-6585" y="-615.19" width="200" height="90" as="geometry" />
        </mxCell>
        <mxCell id="-lX0_qhmXyuA239JzsIQ-40" value="&lt;font style=&quot;&quot;&gt;eth0&lt;br&gt;&lt;span style=&quot;font-size: 10px; font-weight: normal;&quot;&gt;192.168.0.115 / 24&lt;br style=&quot;font-size: 10px;&quot;&gt;&lt;/span&gt;&lt;span style=&quot;font-weight: normal;&quot;&gt;3001:dae:0:f000::da&lt;br&gt;3001:dae:0:f000:216:3eff:fe94:807c&lt;/span&gt;&lt;br style=&quot;font-size: 10px;&quot;&gt;&lt;/font&gt;" style="rounded=1;whiteSpace=wrap;html=1;fillColor=none;strokeColor=#d6b656;fontSize=10;fontStyle=1;strokeWidth=2;" parent="1" vertex="1">
          <mxGeometry x="-6580" y="-579.82" width="190" height="50" as="geometry" />
        </mxCell>
        <mxCell id="-lX0_qhmXyuA239JzsIQ-41" value="&lt;b style=&quot;font-size: 14px;&quot;&gt;CLIENT-MV2PLUS-r16-7&lt;/b&gt;" style="text;html=1;align=center;verticalAlign=middle;resizable=0;points=[];autosize=1;strokeColor=none;fillColor=none;fontSize=14;fontStyle=0;" parent="1" vertex="1">
          <mxGeometry x="-6589.999999999999" y="-611.32" width="180" height="30" as="geometry" />
        </mxCell>
        <mxCell id="-lX0_qhmXyuA239JzsIQ-42" value="" style="endArrow=none;html=1;rounded=0;fontSize=9;entryX=0.5;entryY=0;entryDx=0;entryDy=0;" parent="1" source="-lX0_qhmXyuA239JzsIQ-40" target="-lX0_qhmXyuA239JzsIQ-38" edge="1">
          <mxGeometry width="50" height="50" relative="1" as="geometry">
            <mxPoint x="-6466.32" y="-494.56" as="sourcePoint" />
            <mxPoint x="-6370" y="-539.69" as="targetPoint" />
            <Array as="points" />
          </mxGeometry>
        </mxCell>
        <mxCell id="-lX0_qhmXyuA239JzsIQ-43" value="" style="rounded=1;whiteSpace=wrap;html=1;fillColor=#ffe6cc;strokeColor=#d79b00;fillStyle=auto;strokeWidth=4;fontSize=9;" parent="1" vertex="1">
          <mxGeometry x="-6340.58" y="-505.5" width="360" height="100" as="geometry" />
        </mxCell>
        <mxCell id="-lX0_qhmXyuA239JzsIQ-44" value="&lt;b style=&quot;font-size: 18px;&quot;&gt;MV3-r17-8&lt;/b&gt;" style="text;html=1;align=center;verticalAlign=middle;resizable=0;points=[];autosize=1;strokeColor=none;fillColor=none;fontSize=18;fontColor=default;fontStyle=0;" parent="1" vertex="1">
          <mxGeometry x="-6347.389999999999" y="-505.5" width="110" height="40" as="geometry" />
        </mxCell>
        <mxCell id="-lX0_qhmXyuA239JzsIQ-45" value="" style="rounded=1;whiteSpace=wrap;html=1;fillColor=none;strokeColor=#d79b00;strokeWidth=2;fontSize=9;" parent="1" vertex="1">
          <mxGeometry x="-6340.16" y="-472.5" width="190" height="60" as="geometry" />
        </mxCell>
        <mxCell id="-lX0_qhmXyuA239JzsIQ-46" value="&lt;font style=&quot;&quot;&gt;brlan0&lt;br&gt;&lt;span style=&quot;font-weight: normal;&quot;&gt;&lt;br&gt;192.168.0.1 / 24&lt;/span&gt;&lt;br&gt;&lt;span style=&quot;font-weight: 400;&quot;&gt;3001:dae:0:f000:216:3eff:fedd:3b1f&lt;/span&gt;&lt;span style=&quot;font-weight: normal;&quot;&gt;&amp;nbsp;/ 64&lt;/span&gt;&lt;br style=&quot;font-size: 10px;&quot;&gt;&lt;/font&gt;" style="text;strokeColor=none;align=center;fillColor=none;html=1;verticalAlign=top;whiteSpace=wrap;rounded=1;fontSize=10;fontStyle=1" parent="1" vertex="1">
          <mxGeometry x="-6340.16" y="-472.5" width="189.58" height="60" as="geometry" />
        </mxCell>
        <mxCell id="-lX0_qhmXyuA239JzsIQ-47" value="&lt;b style=&quot;font-size: 9px;&quot;&gt;eth1&lt;/b&gt;" style="rounded=1;whiteSpace=wrap;html=1;fillColor=none;strokeColor=#d79b00;fontSize=9;" parent="1" vertex="1">
          <mxGeometry x="-6330.58" y="-465.5" width="40" height="20" as="geometry" />
        </mxCell>
        <mxCell id="-lX0_qhmXyuA239JzsIQ-48" value="eth0" style="rounded=1;whiteSpace=wrap;html=1;fillColor=none;strokeColor=#d79b00;fontSize=10;fontStyle=1;strokeWidth=2;" parent="1" vertex="1">
          <mxGeometry x="-6020.58" y="-472.5" width="40" height="60" as="geometry" />
        </mxCell>
        <mxCell id="-lX0_qhmXyuA239JzsIQ-49" value="&lt;b style=&quot;font-size: 10px;&quot;&gt;erouter0&lt;br&gt;&lt;/b&gt;&lt;br&gt;10.107.200.110&lt;br&gt;2001:dae:7:1::254" style="rounded=1;whiteSpace=wrap;html=1;align=center;fillColor=none;strokeColor=#d79b00;fontSize=10;strokeWidth=2;verticalAlign=top;" parent="1" vertex="1">
          <mxGeometry x="-6141.16" y="-472.5" width="120" height="60" as="geometry" />
        </mxCell>
        <mxCell id="-lX0_qhmXyuA239JzsIQ-50" value="" style="endArrow=none;html=1;rounded=0;fontSize=9;" parent="1" source="-lX0_qhmXyuA239JzsIQ-51" target="-lX0_qhmXyuA239JzsIQ-47" edge="1">
          <mxGeometry width="50" height="50" relative="1" as="geometry">
            <mxPoint x="-6542.865" y="-397.6811924099501" as="sourcePoint" />
            <mxPoint x="-6434.880576409391" y="-453.6299999999999" as="targetPoint" />
            <Array as="points" />
          </mxGeometry>
        </mxCell>
        <mxCell id="-lX0_qhmXyuA239JzsIQ-51" value="" style="shape=trapezoid;perimeter=trapezoidPerimeter;whiteSpace=wrap;html=1;fixedSize=1;fontSize=12;fillColor=#f5f5f5;fontColor=#333333;strokeColor=#666666;rotation=-90;" parent="1" vertex="1">
          <mxGeometry x="-6399.24" y="-450.16999999999996" width="60.69" height="21.2" as="geometry" />
        </mxCell>
        <mxCell id="-lX0_qhmXyuA239JzsIQ-52" value="" style="rounded=1;whiteSpace=wrap;html=1;fillColor=#fff2cc;strokeColor=#d6b656;strokeWidth=3;fontSize=9;" parent="1" vertex="1">
          <mxGeometry x="-6585.58" y="-499" width="200" height="90" as="geometry" />
        </mxCell>
        <mxCell id="-lX0_qhmXyuA239JzsIQ-53" value="&lt;font style=&quot;&quot;&gt;eth0&lt;br&gt;&lt;span style=&quot;font-size: 10px; font-weight: normal;&quot;&gt;192.168.0.115 / 24&lt;br style=&quot;font-size: 10px;&quot;&gt;&lt;/span&gt;&lt;span style=&quot;font-weight: normal;&quot;&gt;3001:dae:0:f000::da&lt;br&gt;3001:dae:0:f000:216:3eff:fe94:807c&lt;/span&gt;&lt;br style=&quot;font-size: 10px;&quot;&gt;&lt;/font&gt;" style="rounded=1;whiteSpace=wrap;html=1;fillColor=none;strokeColor=#d6b656;fontSize=10;fontStyle=1;strokeWidth=2;" parent="1" vertex="1">
          <mxGeometry x="-6580.58" y="-463.63" width="190" height="50" as="geometry" />
        </mxCell>
        <mxCell id="-lX0_qhmXyuA239JzsIQ-54" value="&lt;b style=&quot;font-size: 14px;&quot;&gt;CLIENT-MV2PLUS-r17-7&lt;/b&gt;" style="text;html=1;align=center;verticalAlign=middle;resizable=0;points=[];autosize=1;strokeColor=none;fillColor=none;fontSize=14;fontStyle=0;" parent="1" vertex="1">
          <mxGeometry x="-6590.579999999999" y="-495.13" width="180" height="30" as="geometry" />
        </mxCell>
        <mxCell id="-lX0_qhmXyuA239JzsIQ-55" value="" style="endArrow=none;html=1;rounded=0;fontSize=9;entryX=0.5;entryY=0;entryDx=0;entryDy=0;" parent="1" source="-lX0_qhmXyuA239JzsIQ-53" target="-lX0_qhmXyuA239JzsIQ-51" edge="1">
          <mxGeometry width="50" height="50" relative="1" as="geometry">
            <mxPoint x="-6466.9" y="-378.37" as="sourcePoint" />
            <mxPoint x="-6370.58" y="-423.5" as="targetPoint" />
            <Array as="points" />
          </mxGeometry>
        </mxCell>
        <mxCell id="-lX0_qhmXyuA239JzsIQ-66" value="" style="rounded=1;whiteSpace=wrap;html=1;fillColor=#ffe6cc;strokeColor=#d79b00;fillStyle=auto;strokeWidth=4;fontSize=9;" parent="1" vertex="1">
          <mxGeometry x="-6341.31" y="-203.63" width="370" height="170" as="geometry" />
        </mxCell>
        <mxCell id="-lX0_qhmXyuA239JzsIQ-67" value="&lt;b style=&quot;font-size: 18px;&quot;&gt;MV3-r17-9&lt;/b&gt;" style="text;html=1;align=center;verticalAlign=middle;resizable=0;points=[];autosize=1;strokeColor=none;fillColor=none;fontSize=18;fontColor=default;fontStyle=0;" parent="1" vertex="1">
          <mxGeometry x="-6281.3099999999995" y="-186.33999999999997" width="110" height="40" as="geometry" />
        </mxCell>
        <mxCell id="-lX0_qhmXyuA239JzsIQ-68" value="" style="rounded=1;whiteSpace=wrap;html=1;fillColor=none;strokeColor=#d79b00;strokeWidth=2;fontSize=9;" parent="1" vertex="1">
          <mxGeometry x="-6335.889999999999" y="-126.33999999999997" width="185" height="82.71" as="geometry" />
        </mxCell>
        <mxCell id="-lX0_qhmXyuA239JzsIQ-69" value="&lt;font style=&quot;&quot;&gt;brlan0&lt;br&gt;&lt;span style=&quot;font-weight: normal;&quot;&gt;&lt;br&gt;192.168.0.1/24&lt;/span&gt;&lt;br&gt;&lt;span style=&quot;font-weight: 400;&quot;&gt;3001:dbe:0:f000:6e3:1aff:fec5:946f&lt;/span&gt;&lt;span style=&quot;font-weight: normal;&quot;&gt;&amp;nbsp;/ 64&lt;/span&gt;&lt;br style=&quot;font-size: 10px;&quot;&gt;&lt;/font&gt;" style="text;strokeColor=none;align=center;fillColor=none;html=1;verticalAlign=top;whiteSpace=wrap;rounded=1;fontSize=10;fontStyle=1" parent="1" vertex="1">
          <mxGeometry x="-6335.889999999999" y="-125.55000000000007" width="180" height="49.21" as="geometry" />
        </mxCell>
        <mxCell id="-lX0_qhmXyuA239JzsIQ-70" value="&lt;b style=&quot;font-size: 9px;&quot;&gt;eth1&lt;/b&gt;" style="rounded=1;whiteSpace=wrap;html=1;fillColor=none;strokeColor=#d79b00;fontSize=9;" parent="1" vertex="1">
          <mxGeometry x="-6331.3099999999995" y="-113.63" width="40" height="20" as="geometry" />
        </mxCell>
        <mxCell id="-lX0_qhmXyuA239JzsIQ-71" value="eth0" style="rounded=1;whiteSpace=wrap;html=1;fillColor=none;strokeColor=#d79b00;fontSize=10;fontStyle=1;strokeWidth=2;" parent="1" vertex="1">
          <mxGeometry x="-6011.31" y="-183.63" width="40" height="130" as="geometry" />
        </mxCell>
        <mxCell id="-lX0_qhmXyuA239JzsIQ-72" value="&lt;b style=&quot;font-size: 10px;&quot;&gt;erouter0 (1081)&lt;br&gt;&lt;/b&gt;10.178.200.100 / 24&lt;br&gt;2001:dbe:0:1::254 / 64" style="rounded=1;whiteSpace=wrap;html=1;align=center;fillColor=none;strokeColor=#d79b00;fontSize=10;strokeWidth=2;verticalAlign=top;" parent="1" vertex="1">
          <mxGeometry x="-6141.31" y="-193.63" width="130" height="50" as="geometry" />
        </mxCell>
        <mxCell id="-lX0_qhmXyuA239JzsIQ-73" value="&lt;b style=&quot;font-size: 10px;&quot;&gt;mg0 (881)&lt;br&gt;&lt;/b&gt;10.177.200.100 / 24&lt;br&gt;2001:dbd:0:1::254 / 64&lt;span style=&quot;font-size: 10px;&quot;&gt;&lt;br style=&quot;font-size: 10px;&quot;&gt;&lt;/span&gt;" style="rounded=1;whiteSpace=wrap;html=1;align=center;fillColor=none;strokeColor=#d79b00;fontSize=10;strokeWidth=2;verticalAlign=top;" parent="1" vertex="1">
          <mxGeometry x="-6140.580000000001" y="-143.63" width="130" height="50" as="geometry" />
        </mxCell>
        <mxCell id="-lX0_qhmXyuA239JzsIQ-74" value="&lt;b style=&quot;font-size: 10px;&quot;&gt;voip0 (981)&lt;br&gt;&lt;/b&gt;10.179.200.100 / 24&lt;br&gt;2001:dbc:0:1::254 / 64&lt;span style=&quot;font-size: 10px;&quot;&gt;&lt;br style=&quot;font-size: 10px;&quot;&gt;&lt;/span&gt;" style="rounded=1;whiteSpace=wrap;html=1;align=center;fillColor=none;strokeColor=#d79b00;fontSize=10;strokeWidth=2;verticalAlign=top;" parent="1" vertex="1">
          <mxGeometry x="-6140.580000000001" y="-93.63" width="130" height="50" as="geometry" />
        </mxCell>
        <mxCell id="-lX0_qhmXyuA239JzsIQ-75" value="" style="endArrow=none;html=1;rounded=0;fontSize=9;" parent="1" source="-lX0_qhmXyuA239JzsIQ-81" target="-lX0_qhmXyuA239JzsIQ-70" edge="1">
          <mxGeometry width="50" height="50" relative="1" as="geometry">
            <mxPoint x="-6366" y="-128" as="sourcePoint" />
            <mxPoint x="-6288.08" y="-706.0400000000001" as="targetPoint" />
            <Array as="points" />
          </mxGeometry>
        </mxCell>
        <mxCell id="-lX0_qhmXyuA239JzsIQ-76" value="" style="shape=trapezoid;perimeter=trapezoidPerimeter;whiteSpace=wrap;html=1;fixedSize=1;fontSize=12;fillColor=#f5f5f5;fontColor=#333333;strokeColor=#666666;rotation=-90;" parent="1" vertex="1">
          <mxGeometry x="-6408.08" y="-270.99" width="60.69" height="21.2" as="geometry" />
        </mxCell>
        <mxCell id="-lX0_qhmXyuA239JzsIQ-77" value="" style="rounded=1;whiteSpace=wrap;html=1;fillColor=#fff2cc;strokeColor=#d6b656;strokeWidth=3;fontSize=9;" parent="1" vertex="1">
          <mxGeometry x="-6594.42" y="-319.82000000000005" width="200" height="90" as="geometry" />
        </mxCell>
        <mxCell id="-lX0_qhmXyuA239JzsIQ-78" value="&lt;font style=&quot;&quot;&gt;eth0&lt;br&gt;&lt;span style=&quot;font-size: 10px; font-weight: normal;&quot;&gt;192.168.0.115 / 24&lt;br style=&quot;font-size: 10px;&quot;&gt;&lt;/span&gt;&lt;span style=&quot;font-weight: normal;&quot;&gt;3001:dae:0:f000::da&lt;br&gt;3001:dae:0:f000:216:3eff:fe94:807c&lt;/span&gt;&lt;br style=&quot;font-size: 10px;&quot;&gt;&lt;/font&gt;" style="rounded=1;whiteSpace=wrap;html=1;fillColor=none;strokeColor=#d6b656;fontSize=10;fontStyle=1;strokeWidth=2;" parent="1" vertex="1">
          <mxGeometry x="-6589.42" y="-284.45000000000005" width="190" height="50" as="geometry" />
        </mxCell>
        <mxCell id="-lX0_qhmXyuA239JzsIQ-79" value="&lt;b style=&quot;font-size: 14px;&quot;&gt;CLIENT-MV2PLUS-r16-7&lt;/b&gt;" style="text;html=1;align=center;verticalAlign=middle;resizable=0;points=[];autosize=1;strokeColor=none;fillColor=none;fontSize=14;fontStyle=0;" parent="1" vertex="1">
          <mxGeometry x="-6599.419999999999" y="-315.95000000000005" width="180" height="30" as="geometry" />
        </mxCell>
        <mxCell id="-lX0_qhmXyuA239JzsIQ-80" value="" style="endArrow=none;html=1;rounded=0;fontSize=9;entryX=0.5;entryY=0;entryDx=0;entryDy=0;" parent="1" source="-lX0_qhmXyuA239JzsIQ-78" target="-lX0_qhmXyuA239JzsIQ-76" edge="1">
          <mxGeometry width="50" height="50" relative="1" as="geometry">
            <mxPoint x="-6475.74" y="-199.19" as="sourcePoint" />
            <mxPoint x="-6379.42" y="-244.32000000000005" as="targetPoint" />
            <Array as="points" />
          </mxGeometry>
        </mxCell>
        <mxCell id="-lX0_qhmXyuA239JzsIQ-81" value="" style="shape=trapezoid;perimeter=trapezoidPerimeter;whiteSpace=wrap;html=1;fixedSize=1;fontSize=12;fillColor=#f5f5f5;fontColor=#333333;strokeColor=#666666;rotation=-90;" parent="1" vertex="1">
          <mxGeometry x="-6408.66" y="-154.79999999999995" width="60.69" height="21.2" as="geometry" />
        </mxCell>
        <mxCell id="-lX0_qhmXyuA239JzsIQ-82" value="" style="rounded=1;whiteSpace=wrap;html=1;fillColor=#fff2cc;strokeColor=#d6b656;strokeWidth=3;fontSize=9;" parent="1" vertex="1">
          <mxGeometry x="-6595" y="-203.63" width="200" height="90" as="geometry" />
        </mxCell>
        <mxCell id="-lX0_qhmXyuA239JzsIQ-83" value="&lt;font style=&quot;&quot;&gt;eth0&lt;br&gt;&lt;span style=&quot;font-size: 10px; font-weight: normal;&quot;&gt;192.168.0.115 / 24&lt;br style=&quot;font-size: 10px;&quot;&gt;&lt;/span&gt;&lt;span style=&quot;font-weight: normal;&quot;&gt;3001:dae:0:f000::da&lt;br&gt;3001:dae:0:f000:216:3eff:fe94:807c&lt;/span&gt;&lt;br style=&quot;font-size: 10px;&quot;&gt;&lt;/font&gt;" style="rounded=1;whiteSpace=wrap;html=1;fillColor=none;strokeColor=#d6b656;fontSize=10;fontStyle=1;strokeWidth=2;" parent="1" vertex="1">
          <mxGeometry x="-6590" y="-168.26" width="190" height="50" as="geometry" />
        </mxCell>
        <mxCell id="-lX0_qhmXyuA239JzsIQ-84" value="&lt;b style=&quot;font-size: 14px;&quot;&gt;CLIENT-MV2PLUS-r17-7&lt;/b&gt;" style="text;html=1;align=center;verticalAlign=middle;resizable=0;points=[];autosize=1;strokeColor=none;fillColor=none;fontSize=14;fontStyle=0;" parent="1" vertex="1">
          <mxGeometry x="-6599.999999999999" y="-199.76" width="180" height="30" as="geometry" />
        </mxCell>
        <mxCell id="-lX0_qhmXyuA239JzsIQ-85" value="" style="endArrow=none;html=1;rounded=0;fontSize=9;entryX=0.5;entryY=0;entryDx=0;entryDy=0;" parent="1" source="-lX0_qhmXyuA239JzsIQ-83" target="-lX0_qhmXyuA239JzsIQ-81" edge="1">
          <mxGeometry width="50" height="50" relative="1" as="geometry">
            <mxPoint x="-6476.32" y="-83" as="sourcePoint" />
            <mxPoint x="-6380" y="-128.13" as="targetPoint" />
            <Array as="points" />
          </mxGeometry>
        </mxCell>
        <mxCell id="-lX0_qhmXyuA239JzsIQ-86" value="erouter0 (cm0)" style="rounded=1;whiteSpace=wrap;html=1;fillColor=none;strokeColor=#d79b00;fontSize=10;fontStyle=1;strokeWidth=2;" parent="1" vertex="1">
          <mxGeometry x="-6140" y="-825.76" width="160" height="20" as="geometry" />
        </mxCell>
        <mxCell id="-lX0_qhmXyuA239JzsIQ-87" value="erouter0 (cm0)" style="rounded=1;whiteSpace=wrap;html=1;fillColor=none;strokeColor=#d79b00;fontSize=10;fontStyle=1;strokeWidth=2;" parent="1" vertex="1">
          <mxGeometry x="-6139.42" y="-717" width="158.84" height="20" as="geometry" />
        </mxCell>
        <mxCell id="S7YGQ8n8SAagLF1b5J0V-1" value="" style="endArrow=none;html=1;rounded=0;fontSize=9;" edge="1" parent="1" source="jPhf9QpesXwXawj8Bi22-6" target="-lX0_qhmXyuA239JzsIQ-48">
          <mxGeometry width="50" height="50" relative="1" as="geometry">
            <mxPoint x="-5895" y="-548" as="sourcePoint" />
            <mxPoint x="-5961" y="-353" as="targetPoint" />
          </mxGeometry>
        </mxCell>
      </root>
    </mxGraphModel>
  </diagram>
</mxfile>
